<svg xmlns="http://www.w3.org/2000/svg" viewBox="0 0 400 240" fill="none">
  <defs>
    <linearGradient id="g3" x1="0" y1="0" x2="0" y2="1">
      <stop offset="0%" stop-color="#dc2626" stop-opacity="0.25"/>
      <stop offset="100%" stop-color="#dc2626" stop-opacity="0"/>
    </linearGradient>
  </defs>
  <rect width="400" height="240" fill="#fef2f2"/>
  <g opacity="0.12" stroke="#dc2626" stroke-width="0.5">
    <path d="M0 60h400M0 120h400M0 180h400"/>
  </g>
  <path d="M40 175 L40 200 L360 200" stroke="#94a3b8" stroke-width="1.5"/>
  <path d="M55 175 L55 45" stroke="#94a3b8" stroke-width="1.5"/>
  <path d="M55 130 L360 130" stroke="#059669" stroke-width="1.5" stroke-dasharray="6 4" opacity="0.7"/>
  <text x="365" y="134" font-family="system-ui,sans-serif" font-size="10" fill="#059669">ą20</text>
  <path d="M70 155 L120 148 L170 130 L220 105 L270 72 L320 48 L350 38" stroke="#dc2626" stroke-width="2.5" stroke-linecap="round"/>
  <path d="M70 155 L120 148 L170 130 L220 105 L270 72 L320 48 L350 38 L350 200 L70 200Z" fill="url(#g3)"/>
  <circle cx="270" cy="72" r="5" fill="#dc2626"/>
  <rect x="248" y="18" width="72" height="22" rx="4" fill="#fef2f2" stroke="#fecaca"/>
  <text x="284" y="33" text-anchor="middle" font-family="system-ui,sans-serif" font-size="10" font-weight="600" fill="#dc2626">+42%</text>
  <text x="62" y="28" font-family="system-ui,sans-serif" font-size="11" fill="#991b1b">ň, ą</text>
  <text x="62" y="168" font-family="system-ui,sans-serif" font-size="9" fill="#64748b">Mon</text>
  <text x="200" y="168" font-family="system-ui,sans-serif" font-size="9" fill="#64748b">Wed</text>
  <text x="330" y="168" font-family="system-ui,sans-serif" font-size="9" fill="#64748b">Fri</text>
</svg>
