<svg xmlns="http://www.w3.org/2000/svg" viewBox="0 0 400 240" fill="none">
  <defs>
    <linearGradient id="g1" x1="0" y1="0" x2="0" y2="1">
      <stop offset="0%" stop-color="#0ea5e9" stop-opacity="0.35"/>
      <stop offset="100%" stop-color="#0ea5e9" stop-opacity="0"/>
    </linearGradient>
  </defs>
  <rect width="400" height="240" fill="#f0f9ff"/>
  <g opacity="0.15" stroke="#0284c7" stroke-width="0.5">
    <path d="M0 60h400M0 120h400M0 180h400"/>
    <path d="M50 0v240M150 0v240M250 0v240M350 0v240"/>
  </g>
  <path d="M40 170 L90 165 L140 160 L190 155 L240 90 L290 75 L340 68 L360 62" stroke="#0284c7" stroke-width="2.5" stroke-linecap="round" stroke-linejoin="round"/>
  <path d="M40 170 L90 165 L140 160 L190 155 L240 90 L290 75 L340 68 L360 62 L360 200 L40 200Z" fill="url(#g1)"/>
  <circle cx="240" cy="90" r="5" fill="#dc2626"/>
  <circle cx="290" cy="75" r="5" fill="#dc2626"/>
  <circle cx="340" cy="68" r="5" fill="#dc2626"/>
  <rect x="228" y="28" width="52" height="22" rx="4" fill="#fef2f2" stroke="#fecaca"/>
  <text x="254" y="43" text-anchor="middle" font-family="system-ui,sans-serif" font-size="11" font-weight="600" fill="#dc2626">429</text>
  <text x="48" y="28" font-family="system-ui,sans-serif" font-size="11" fill="#64748b">API ÷B / min</text>
  <path d="M60 200 Q120 198 180 195" stroke="#059669" stroke-width="1.5" stroke-dasharray="4 3" opacity="0.6"/>
  <text x="60" y="218" font-family="system-ui,sans-serif" font-size="10" fill="#059669">M¯
P</text>
</svg>
